<svg xmlns="http://www.w3.org/2000/svg" width="1020.584" height="1217" viewBox="0 0 1020.584 1217">
  <g id="Group_5" data-name="Group 5" transform="translate(8904 -3850)">
    <g id="Group_1" data-name="Group 1" transform="translate(3040 4421)">
      <g id="body_Macbook" data-name="body/Macbook" transform="translate(-11944 -87)">
        <path id="_Background" data-name="ðŸŽ¨ Background" d="M971.081,233.472l-42.838,4.2c-68.388,5.225-136.749,16.137-204.613,22.686-1.69-2.75-5-2.3-7.005-.386-6.772-.593-14.361-5.769-20.5-.385-.2-.028-.4-.061-.6-.08-10.922-20.963-18.472-43.322-25.8-65.711-4.677-13.765-10.969-27.09-22.6-36.332-19.844-13.775-65.312-41.708-88.613-40.534A17.3,17.3,0,0,0,553,105.684c7.038-12-21.1-19.828-23.088-18.437,1.272-40.088-17.585-74.9-59.165-82.885C433.492-3.4,380.509-4.7,360.475,34.225c-2.2-.248-24.713-.365-26.892-.121-3.386-4.289-40.576,36.353-25.334,50.5C171.978,144.888,94.493,137.7,56.775,307.164c-5.1,15.92-5.471,33.341-10.855,48.906C26.763,400.8,11.226,448.432,7.359,497.1c-9.339,2.393-10.414,18.86.4,21.242,4.132.911,7.588,2.155,10.6,4.514-2.355,39.886,7.291,131,13.369,130.719,12.394,39.443,67.675,50.575,106.813,36.714-6.747,12.693,0,20.674,0,27.456,140.827,5.328,294.807,2.26,435.595,9.567,18.009-.256,36.951,4.423,54.714,1.73,10.833-2.6,10.851-19.63-.137-21.736l48.013-10.428c-1.073-.4,19.791-14.283,35.56-40.216,14.678-29.01,4.688-64.028,11.339-95.584,51.944-4.248,104.748-6.064,156.124-14.861,7.005,20.959,37.329-4.107,46.967-14.19l-.036-.047a11.708,11.708,0,0,0,8.531-10.824c3.271-4.674,3.958-11.262.821-15.779,14.378-82.968,36.3-167.68,44.222-251.428a17.73,17.73,0,0,0,7.675-3.74l-.181-.181c3.789-4.224,4.526-11.515-1.791-15.1C980.865,232.029,976.611,232.928,971.081,233.472Z" transform="translate(25 -24)" fill="#fff"/>
        <path id="_Ink" data-name="ðŸ– Ink" d="M644.108,714.587a3.747,3.747,0,0,1-2.779-1.232,17.477,17.477,0,0,1-3.893-6.888,52.855,52.855,0,0,1-1.61-7.814v-.006l0-.016c-.134-.867-.272-1.763-.423-2.645-1.054-6.166-2.009-12.569-2.921-19.574-1.917-14.734-2.971-26.864-3.317-38.176-.4-13.028-.246-26.254.459-39.31.344-6.363.783-13.2,1.666-20.116.406-3.182.759-5.852,1.161-8.539.15-1,.317-2.015.512-3.1l-10.811,1.22c-15.833,1.767-32.725,3.515-49.856,3.781H572.2a5.4,5.4,0,0,1-4.4-2.182,6.206,6.206,0,0,1-5.512,2.948h-.032c-23.787-.088-45.888-8.076-66.227-16.694-5.084-2.155-10.21-4.43-15.168-6.63l-.021-.009c-5.465-2.425-11.117-4.933-16.725-7.286-4.12-1.729-8.429-3.279-12.6-4.778a183.264,183.264,0,0,1-17.826-7.127l-25.62,13.439a10.53,10.53,0,0,1-4.208,5.885,22.7,22.7,0,0,1-4.793,2.566,19.918,19.918,0,0,1-7.67,1.528,20.828,20.828,0,0,1-2.146-.112c-23.43,12.277-41.414,21.685-58.313,30.5l-19.453,10.14c-11.248,5.857-22.577,11.79-33.532,17.527-27.079,14.182-55.08,28.847-82.828,42.866l-2.871,1.445c-12.556,6.3-27.47,13.443-42.885,18.711a76.159,76.159,0,0,0,.22,11.469l.076.873c.034.363.071.725.109,1.109l0,.042a34.478,34.478,0,0,1,.227,6.969,8.763,8.763,0,0,1-2.735,5.912,4.976,4.976,0,0,1-3.266,1.223,3.858,3.858,0,0,1-3.58-2.106,13.446,13.446,0,0,1-1.087-6.814,58.845,58.845,0,0,1,1.049-7.5c.212-1.15.412-2.233.562-3.24a49.273,49.273,0,0,1,1.1-5.6,152.717,152.717,0,0,1-18.426,4.321,114.164,114.164,0,0,1-18.621,1.6,94,94,0,0,1-15.188-1.212,53.069,53.069,0,0,1-12.037-3.487,59.928,59.928,0,0,1-10.721-5.936,76.32,76.32,0,0,1-9.525-7.866,103.674,103.674,0,0,1-8.449-9.279,120.433,120.433,0,0,1-14.3-22.283,121.976,121.976,0,0,1-9.107-24.864,171.148,171.148,0,0,1-4.392-29.823c-.678-10.125-.721-20.489-.666-30.18.068-11.9.338-22.414.828-32.148.578-11.5,1.458-21.983,2.689-32.041a34.716,34.716,0,0,0-7.706-1.091c-.408,0-.81.013-1.194.04a6.187,6.187,0,0,1-2.535,2.257,7.457,7.457,0,0,1-3.274.745,7.594,7.594,0,0,1-.891-.053,4.02,4.02,0,0,0-1.13,3.83c.507,1.989,2.557,4.072,6.091,6.191a45.463,45.463,0,0,0,7.813,3.653,1.61,1.61,0,0,1,1.023,1.808,1.3,1.3,0,0,1-1.344,1.141l-.077,0-1.113-.053c-6.93-.369-13.892-1.577-17.869-7.863A12.081,12.081,0,0,1,.086,486.7a12.958,12.958,0,0,1,3.432-7.266c2.265-21.418,7.434-42.671,12.432-63.224l.032-.131c.571-2.349,1.162-4.778,1.738-7.167,5.119-21.228,11.063-43.562,18.172-68.277l2.918-10.129c4.935-17.091,10.3-35.364,16.09-53.2,6.352-19.568,12.569-36.624,19.007-52.142,3.975-9.582,7.776-17.791,11.62-25.1a177.7,177.7,0,0,1,14.593-23.461,165.137,165.137,0,0,1,16.8-19.283,172.334,172.334,0,0,1,19.551-16.491c11.722-8.5,25.376-16.2,41.743-23.54,14.425-6.47,29.387-11.99,44.724-17.542l1.342-.485c14.93-5.4,30.881-11.246,46.378-17.391,7.018-2.782,14-6,20.743-9.113,6.307-2.91,12.829-5.918,19.36-8.559-.446-.81-.874-1.624-1.272-2.418l-.249.211-.005,0,0,0c-.039.03-.08.061-.122.09a3,3,0,0,1-1.725.51,4.164,4.164,0,0,1-2.755-1.088,5.513,5.513,0,0,1-1.968-4.654,10.219,10.219,0,0,1,1.987-4.737l.276-.394c1.969-2.758,3.8-5.682,5.579-8.51.522-.831,1.113-1.773,1.689-2.679l1.493-2.345c3.916-6.13,8.186-12.549,13.536-17.74a29.28,29.28,0,0,1,8.04-5.529.278.278,0,0,1,.044-.272,2.912,2.912,0,0,1,1.975-.918.734.734,0,0,1,.494.146,47.166,47.166,0,0,1,16.3-2.468c4.548,0,9.154.391,13.114.758l1.887-5.991a10.081,10.081,0,0,1,3.576-4.7A8.322,8.322,0,0,1,377.4,0a8.727,8.727,0,0,1,8.408,6.405,10.754,10.754,0,0,1,.247,4.463c-.932,6.535-4.363,13.319-7.933,19.678-2.279,4.058-5.465,9.209-9.911,13.047,7.4,6.9,15.123,13.59,22.956,19.872a283.248,283.248,0,0,0,26.972,19.081c2.526,1.579,5.127,3.126,7.642,4.622a181.123,181.123,0,0,1,16.831,10.876,65.556,65.556,0,0,1,9.968,9.084,38.513,38.513,0,0,1,7.08,11.406,32,32,0,0,1,2.005,13.769,62.875,62.875,0,0,1-2.612,13.764l-.3,1.026c-.315,1.06-.648,2.119-1,3.24-2.593,8.241-5.531,17.582.118,25.057,2.375,3.142,5.569,5.643,8.658,8.061,1.141.893,2.319,1.816,3.43,2.752a94.3,94.3,0,0,1,10.179,9.975,82.458,82.458,0,0,1,15.879,26.364l.313.888a58.07,58.07,0,0,1,3.218,13.944,26.509,26.509,0,0,1-2.078,13.826,2.59,2.59,0,0,1-2.437,1.484,3.231,3.231,0,0,1-3.133-2.212,59.066,59.066,0,0,1-1.487-8.9,70.593,70.593,0,0,0-1.147-7.558,62.243,62.243,0,0,0-6.221-16.143,87.439,87.439,0,0,0-21.384-25.379l-2.591-2.107a57.965,57.965,0,0,1-9.178-8.932,24.593,24.593,0,0,1-5.143-11.653c-1.173-7.846,1.131-15.474,3.359-22.852l.006-.02c.551-1.826,1.121-3.714,1.625-5.565,2.008-7.374,2.145-13.259.434-18.519a77.772,77.772,0,0,1-5.961,8.052c-.719.889-1.4,1.729-2.046,2.558-3.887,4.979-7.846,9.99-11.675,14.836l-.518.656-2.879,3.645c-5.712,7.239-10.612,13.777-14.98,19.986-2.308,3.283-4.519,6.483-6.376,9.18-.867,1.258-1.94,2.54-2.979,3.779l-.005.007c-.869,1.037-1.767,2.109-2.553,3.176a4.112,4.112,0,0,1-.373,3.738c-1.631,2.2-3.49,3.32-5.528,3.321-3.417,0-7.386-3.1-11.8-9.225a111.606,111.606,0,0,1-8.074-13.618l-.191-.367-.071-.136c-3.452-6.627-6.514-13.57-9.475-20.285-3-6.792-6.092-13.814-9.593-20.512a320.782,320.782,0,0,0-24.588-39.854c-2.1-2.888-4.325-5.752-6.479-8.522-3.533-4.544-7.186-9.242-10.335-14.133a105.675,105.675,0,0,1-20.1,13.922c-7.459,4.12-15.5,7.788-21.962,10.735l-.008,0c-12.321,5.618-25.216,10.514-37.687,15.249l-.025.009c-3.564,1.353-7.25,2.753-10.863,4.146l-4.8,1.865c-15.806,6.169-28.956,11.589-41.758,17.993-15.148,7.577-27.647,15.544-38.212,24.356a143.619,143.619,0,0,0-18.531,18.672,174.344,174.344,0,0,0-15,21.3,229.89,229.89,0,0,0-12.131,23.2c-3.41,7.467-6.655,15.435-9.92,24.36-6.491,17.741-12.774,36.547-19.208,57.494-5.3,17.269-10.652,35.776-16.828,58.243-5.519,20.073-10.75,40.246-15.548,59.959-1.468,6.032-2.874,12.185-4.234,18.137l0,.018c-2.621,11.475-5.332,23.341-8.61,34.855.444-.016.89-.023,1.323-.023,6.177,0,12.658,1.417,18.926,2.787,3.579.782,6.958,1.521,9.992,1.918,21.164,2.771,40.27,6.165,58.409,10.376,9.826,2.281,19.462,4.837,28.641,7.6,9.635,2.9,19.1,6.116,28.122,9.569a7.839,7.839,0,0,1,4.548,4.287,8.86,8.86,0,0,1,.362,5.754l3.162-.9.118-.034c1.651-.469,3.141-.891,4.647-1.314-2.358-3.613-1.881-9.526-1.5-14.278.087-1.078.169-2.1.211-3.01l.014-.338c.154-4.31.519-8.686.873-12.919l0-.022c.184-2.2.374-4.477.531-6.712.93-13.217,2.088-25.4,3.541-37.245l.388-3.1c.734-5.746,1.4-11.6,2.036-17.252v-.008c.864-7.634,1.758-15.529,2.837-23.26l.222-1.542c-.783-2.994-1.724-6.151-3.051-10.236-2.051-6.311-4.739-12.466-7.337-18.42-1.118-2.56-2.273-5.206-3.367-7.841a.8.8,0,0,1,.053-.785,1.176,1.176,0,0,1,.969-.469,1.041,1.041,0,0,1,.7.251,61.718,61.718,0,0,1,8.309,9.262,87.285,87.285,0,0,1,6.641,10.618c.03-.15.058-.3.086-.451.034-.183.073-.39.113-.589l.447-2.2c1.113-5.412,2.472-11.059,5.742-15.382a.937.937,0,0,1,.732-.384.734.734,0,0,1,.645.384,25.17,25.17,0,0,1,2.9,8.249,82.377,82.377,0,0,1,1.01,8.818c.029.371.058.738.087,1.1.62,7.754.594,15.537.521,20.716-.151,10.774-.8,21.737-1.425,32.339-.147,2.488-.314,5.309-.469,8.066-.678,12.078-2.011,24.943-4.075,39.327l-.357,2.453c-.247,1.68-.487,3.395-.719,5.053l0,.013c-.628,4.494-1.276,9.135-2.159,13.643l-.342,1.683c-.2.951-.377,2.023-.564,3.158a45.689,45.689,0,0,1-1.769,7.822c31.663-8.831,65.166-17.965,99.58-27.148,17.067-4.555,34.425-9.135,51.211-13.565,6.846-1.806,13.925-3.674,20.927-5.525a27.069,27.069,0,0,1,4.821-6.333,26.011,26.011,0,0,1,6.909-4.888,17.862,17.862,0,0,1,7.666-1.82,15.946,15.946,0,0,1,8.43,2.452,1.075,1.075,0,0,1,.5.945.956.956,0,0,1-.5.837c-1.784.975-3.22,1.789-4.518,2.56l14.44-3.911c3.182-.862,6.435-1.805,9.581-2.718l.013,0c7.562-2.193,15.382-4.46,23.168-5.9,19.951-9.845,41.535-17.078,62.41-24.072l1.256-.421,2.526-.854c1.46-.5,2.981-1.022,4.323-1.485,9.579-3.3,19.485-6.716,29.342-8.52a29.193,29.193,0,0,1,5.236-.483,21.038,21.038,0,0,1,9.63,2.117,13.433,13.433,0,0,1,6.517,7.183,133.585,133.585,0,0,1,12.039,9.277c1.958,1.642,3.89,3.385,5.758,5.07l.024.022c.771.7,1.568,1.414,2.356,2.116l.5.437.49.422.02.017c1.952,1.677,3.494,3,3.994,5.816a3.422,3.422,0,0,1-.7,2.694,2.173,2.173,0,0,1-1.7.82,2.438,2.438,0,0,1-.262-.014c-4.756-.509-8.76-4.971-12.294-8.908l0,0c-.884-.985-1.72-1.916-2.529-2.742-3.52-3.6-6.416-6.667-9.107-9.976a4.244,4.244,0,0,1-2.02.526,3.222,3.222,0,0,1-2.969-1.785,9.657,9.657,0,0,0-4.217-4.253,12.6,12.6,0,0,0-5.689-1.191c-4.814,0-10.379,1.889-14.851,3.407l-.006,0c-1.441.489-2.8.951-4.013,1.31l-11.89,3.519c-4.93,1.461-11.41,3.388-17.819,5.335-5.98,1.816-12.034,3.738-17.888,5.6-10.158,3.225-20.662,6.559-31.093,9.443a3.426,3.426,0,0,1,.818,3.08,3.612,3.612,0,0,1-2.344,2.511c-9.352,3.669-19.477,6.079-29.268,8.41l-.014,0c-3.66.871-7.444,1.772-11.1,2.72-8.374,2.171-16.9,4.4-25.329,6.612a20.612,20.612,0,0,0-2.926,8.083,60.471,60.471,0,0,0,.522,17.852,160.662,160.662,0,0,0,4,17.572l.455,1.638a85.947,85.947,0,0,0,4.957,13.83c2.49,5.151,5.37,8.877,8.8,11.39a13.412,13.412,0,0,0,6.612,2.519c15.154-7.8,29.977-15.43,44.728-23a4.163,4.163,0,0,1,1.911-.486,4.354,4.354,0,0,1,4.025,3.271,97.5,97.5,0,0,0,15.286-3.845,68.121,68.121,0,0,0,13.189-6.69c2.765-1.669,5.622-3.393,8.639-4.835a26.22,26.22,0,0,1,11.551-2.592,41.257,41.257,0,0,1,14.443,2.985,140.682,140.682,0,0,1,13.793,6.339c.888.448,1.805.91,2.7,1.354l3.005,1.477c4,1.941,9.847,4.521,14.421,4.521,3.29,0,5.444-1.343,6.4-3.992a9.188,9.188,0,0,0,.141-5.647,16.413,16.413,0,0,0-2.75-5.357,32.634,32.634,0,0,0-8.8-7.907,53.531,53.531,0,0,0-10.56-4.828c-3.893-1.34-7.849-2.346-11.2-3.153-4.356-1.048-8.7-1.881-12.92-2.474-1.57-.221-3.183-.363-4.743-.5a43.034,43.034,0,0,1-10.008-1.685,2.93,2.93,0,0,1-1.9-2.9,2.33,2.33,0,0,1,1.9-2.247,28.72,28.72,0,0,1,6.34-.654c5.589,0,11.61,1.276,17.284,2.656l3.981.981c6.442,1.581,14.81,3.919,22.408,8a46,46,0,0,1,7.567,5.1,34.733,34.733,0,0,1,6.383,6.861,8.762,8.762,0,0,1,6.248-2.357,17.7,17.7,0,0,1,4.528.675l2.141.595a26.3,26.3,0,0,0,7.046,1.25,14.281,14.281,0,0,0,2.8-.275c.442-2.4.921-4.979,1.426-7.511,5.013-25.17,10.468-49.907,16.213-73.523,5.066-20.825,10.633-41.941,16.544-62.76,5.848-20.6,12.2-41.486,18.881-62.094l1.34-4.117c.687-2.1,1.357-4.288,2.005-6.4l.007-.021c2.29-7.47,4.657-15.194,8.509-21.91a30.4,30.4,0,0,1,8.987-9.828,39.72,39.72,0,0,1,12.168-5.563,237.6,237.6,0,0,1,23.268-4.833l.033-.006c2.579-.446,5.245-.908,7.844-1.389,1.38-.255,2.815-.511,4.082-.738.934-.167,1.9-.34,2.85-.512a76.176,76.176,0,0,1-3.685-8.092c-.361-.885-.7-1.717-1.036-2.5l-.23-.532c-3.074-7.009-5.783-14.131-7.8-19.552l-1.83-4.946c-4.215-11.368-8.859-23.417-15.185-34.766A89.565,89.565,0,0,0,656.721,154.8a94.825,94.825,0,0,0-14.611-13.2c-10.29-7.554-21.755-13.476-32.842-19.2-6.327-3.268-12.868-6.647-19.122-10.294a142.871,142.871,0,0,1-18.012-12.217.75.75,0,0,1-.271-.865,1.1,1.1,0,0,1,1-.7.9.9,0,0,1,.407.1c10.087,5.069,20.9,9.064,31.355,12.928l.005,0c4.5,1.662,9.146,3.38,13.665,5.157l2.962,1.168c11.6,4.6,23.788,9.729,34.186,17.439a94.9,94.9,0,0,1,15.375,14.271,97.9,97.9,0,0,1,11.871,17.308c5.447,10.081,9.33,21.246,13.085,32.043l0,.009c.841,2.418,1.71,4.918,2.579,7.351l1.26,3.519c1.813,5.028,3.808,10.406,6.115,15.669.719,1.64,1.674,3.349,2.686,5.159a48.055,48.055,0,0,1,3.948,8.227l.828-.144.034-.006c3.793-.658,7.715-1.339,11.576-1.984,22.351-3.732,45.087-7.127,67.576-10.092,22.471-2.962,45.308-5.576,67.877-7.767s45.473-4.02,68.1-5.437,45.591-2.461,68.255-3.1l.154,0a4.462,4.462,0,0,1,3.516,1.6,5.964,5.964,0,0,1,1.211,4.806c-4.925,29.126-9.611,58.745-14.143,87.389l-.01.061c-3.518,22.233-7.155,45.224-10.877,67.809-3.8,23.051-7.633,45.82-11.4,67.675-.842,4.886-1.752,9.832-2.632,14.616-1.183,6.427-2.405,13.069-3.473,19.623-.321,1.974-.629,3.984-.926,5.929l-.011.072a173.9,173.9,0,0,1-4.24,21.57c-2.675,9.346-6.5,16.564-11.707,22.066a34.186,34.186,0,0,1-11,7.623,54.348,54.348,0,0,1-12.912,3.774c-15.56,2.678-31.639,4.281-47.189,5.831-6.86.684-13.951,1.391-20.892,2.181l-120.447,13.7c.854,7.764,1.346,15.581,1.5,23.9.145,7.593.007,15.455-.421,24.036l-.46,8.836c-.36,6.794-.8,14.032-1.847,21.257a40.016,40.016,0,0,1-3.881,12.279,48.635,48.635,0,0,1-7.38,10.605c-5.257,5.828-11.508,10.769-18.542,16.164-6.122,4.7-13.337,9.984-21.487,13.273l-1.022.406a101.646,101.646,0,0,1-11.389,3.7,55.563,55.563,0,0,1-13.539,1.975,27.6,27.6,0,0,1-4.376-.326c.238,1.194.525,2.428.8,3.621,1.186,5.108,2.412,10.39.7,15.328a4.652,4.652,0,0,1-1.664,2.224A4.371,4.371,0,0,1,644.108,714.587Zm79.7-157.46-12.62,1.435c-14.8,1.685-29.367,3.281-41.665,4.621l-30.172,3.279c-.038.85-.107,1.674-.174,2.47v.008c-.067.8-.131,1.565-.15,2.222-.2,6.957-.357,14.021-.483,20.1-.277,13.354.029,26.9.911,40.271.994,15.072,2.182,27.424,3.739,38.873l.359,2.578.208,1.356a5.933,5.933,0,0,1,4.006,2.215c.74.883,2.11,1.331,4.074,1.331,3.486,0,8.084-1.376,11.328-2.53,6.04-2.149,11.822-5.886,16.681-9.258a104.785,104.785,0,0,0,13.929-11.859l3.566-3.526c3.482-3.461,7.067-7.216,9.271-11.714,2.43-4.957,3.108-10.788,3.765-16.427.135-1.161.275-2.362.427-3.513.932-7.048,2.1-14.713,3.67-24.121l9.331-37.808ZM25.717,484.446l-.055,13.108c-.066,17.833-.051,36.822.911,55.678l.18,3.439c1.079,20.185,2.753,41.538,10.16,61.222a116.93,116.93,0,0,0,11.512,22.746,104.928,104.928,0,0,0,16.357,19.522,62.185,62.185,0,0,0,9.918,7.655,43.356,43.356,0,0,0,11.469,4.961,64.358,64.358,0,0,0,16.838,2.026c2.242,0,4.535-.084,7.009-.256,33.12-2.31,63.1-18.215,92.1-33.6l.005,0h0c4.387-2.327,8.924-4.733,13.36-7.03,51.959-26.9,107.346-55.565,163.012-84.247a26.681,26.681,0,0,1-4.113-3.463c-6.118-6.32-10.46-15.16-13.663-27.822a146.839,146.839,0,0,1-4.485-32.985l1.219-12.816-1.309.345c-13.539,3.6-27.272,7.279-40.553,10.838-33.449,8.966-68.037,18.237-102.175,26.882-13.605,3.445-27.471,6.8-40.88,10.046-9.861,2.386-20.058,4.854-30.073,7.338l-3.826.958c-18.323,4.63-37.415,10.29-51.789,23.906a.55.55,0,0,1-.38.161.6.6,0,0,1-.531-.364.531.531,0,0,1,.115-.594c6.951-7.4,15.793-13.467,27.032-18.551,10.181-4.6,21.021-7.848,31.251-10.774,2.138-.611,4.314-1.225,6.418-1.819l.09-.025c1.5-.423,3.369-.95,5.15-1.457-31.8-11.335-60.353-19.635-87.3-25.371-3.79-.807-7.667-1.519-11.415-2.208h-.005c-3.811-.7-7.752-1.424-11.6-2.248-3.432-.734-6.866-1.694-10.187-2.623-1.835-.513-3.732-1.043-5.619-1.533Zm964.876-264c-23.866.721-47.929,1.874-71.52,3.427-23.825,1.568-47.831,3.588-71.349,6-43.964,4.514-88.35,10.6-131.925,18.1-9.094,1.564-18.307,3.215-27.383,4.909l-5.468,1.029c-2.039.386-4.136.715-6.357,1.064-3.8.6-7.721,1.211-11.49,2.152a38.362,38.362,0,0,0-10.528,4.1,22.129,22.129,0,0,0-8.231,9.359,74.766,74.766,0,0,0-4.453,12.031c-.336,1.1-.682,2.228-1.036,3.327-3.329,10.348-6.621,20.882-9.786,31.308-12.768,42.07-24.341,84.337-34.4,125.626-3.591,14.74-6.952,29.787-10.2,44.339l0,.007,0,.012c-1.365,6.112-2.777,12.433-4.187,18.646-3.735,16.463-8.118,34.134-13.794,55.612a5.45,5.45,0,0,1,2.231-1.013c20.045-4.265,40.764-6.573,60.8-8.806,4.193-.467,8.528-.95,12.81-1.446l2.381-.277c24.173-2.843,50.158-5.881,76.392-8.83l168.658-18.967c2.817-.317,5.744-.56,8.573-.8,7.262-.6,14.769-1.229,21.71-3.143,7.337-2.024,12.792-6.932,16.675-15,3.257-6.772,4.887-14.549,6.4-22.59l.084-.443c4.979-26.483,9.424-53.548,13.723-79.722l0-.019c2.884-17.563,5.867-35.724,8.99-53.576ZM562.258,559.257h.024a6.52,6.52,0,0,1,3.822,1.133l6.3-50.361c-3.2-.211-6.947-1.74-10.574-3.218-3.537-1.442-6.877-2.8-9.375-2.8-.182,0-.36.007-.529.022,2.895,4.857,3.663,9.8,2.282,14.7-1.626,5.767-5.656,8.692-11.977,8.692a34.632,34.632,0,0,1-10.808-2.08A76.108,76.108,0,0,1,522,521.354c-1.671-.831-3.352-1.716-4.979-2.573-5.679-2.989-11.551-6.081-17.976-7.433a24.486,24.486,0,0,0-5.019-.541c-6.494,0-11.7,2.834-17.737,6.115l-.879.478a69.584,69.584,0,0,1-20.865,7.371,41.321,41.321,0,0,1-7.408.646c-1.235,0-2.482-.048-3.812-.147a4.541,4.541,0,0,1-.754.5l-1.942,1.02c8.8.4,17.884,3.159,25.9,5.592,8.812,2.674,17.551,5.963,25.051,8.837l8.134,3.126a305.272,305.272,0,0,0,30.521,10.327,122.33,122.33,0,0,0,31.747,4.59ZM338.074,20.241a22.5,22.5,0,0,0-5.109,4.034c-4.806,5.1-8.268,11.417-11.615,17.528l-.2.365c-.834,1.523-1.657,3.057-2.452,4.541l-.011.021c-.973,1.815-1.979,3.691-2.993,5.523-.878,1.586-1.781,3.147-2.47,4.331a17.369,17.369,0,0,1-1.174,1.578l0,0h0c-.338.425-.688.865-.928,1.206.588.823,1.228,1.682,1.957,2.625.052.067.8.892,2.044,2.26l.051.056c5.086,5.6,17,18.7,21.868,24.661,4.763,5.827,9.238,11.793,13.3,17.732,4.219,6.167,8.136,12.511,11.642,18.856,4.159,7.529,7.791,15.452,11.3,23.115,2.417,5.274,4.916,10.725,7.57,16.012a98.818,98.818,0,0,0,11.526,18.542c.106.13.218.257.326.381l.007.008.013.014c.069.079.138.158.207.239,1.437-3.882,4.69-7.977,7.065-10.967.536-.675,1.043-1.313,1.462-1.866l.208-.277c4.525-6.1,9.555-12.422,15.829-19.9,4.837-5.76,9.987-11.623,15.3-17.424l1.966-2.134c.662-.715,1.341-1.478,2.061-2.285,3.192-3.581,7.164-8.039,11.535-10.343a25.754,25.754,0,0,0-1.993-3.02c-5.148-6.727-12.516-11.546-19.019-15.535l-4.517-2.748C409.416,89.2,402.356,84.429,397.7,81.184a228.3,228.3,0,0,1-23.445-18.523c-7.068-6.447-15.222-14.212-22.108-22.928l-2.326-2.942ZM366.486,15.1c-1.868.157-3.809.271-5.686.38-6.207.363-12.625.739-18.267,2.728,3.893,3.68,7.729,7.593,11.438,11.377,2.526,2.577,5.138,5.242,7.737,7.8a94.725,94.725,0,0,1,2.072-9.956c.215-.873.436-1.774.647-2.663Zm-2.048,649.931a4.122,4.122,0,0,1-3.375-2.07,3.894,3.894,0,0,1-.174-3.9c9.617-18.347,20.954-35.774,31.773-51.872l1.478-2.2c5.091-7.578,10.355-15.413,15.587-23.09,2.825-4.144,5.142-7.461,7.294-10.439l1.5-2.057,8.117-8.882a.732.732,0,0,1,.35-.09.716.716,0,0,1,.708.7c.143,3.563-1.5,7.025-3.085,10.374-.24.506-.511,1.079-.758,1.616l-.181.4c-1.872,4.165-4.072,8.648-6.723,13.706-4.828,9.206-9.784,18.174-14.729,26.654-11.462,19.662-22.983,35.984-35.22,49.9A3.382,3.382,0,0,1,364.438,665.035Zm205.248-178c-4.266,0-8.37-2.183-12.918-6.872l-3.055-3.192a32.528,32.528,0,0,0-6.677-5.672,16.523,16.523,0,0,0-8.76-2.311c-.267,0-.542.005-.818.015a129.472,129.472,0,0,0-15.512,1.839h-.007c-2.93.468-5.96.951-8.929,1.3-8.829,1.044-18.11,1.99-27.585,2.811h-.034a.335.335,0,0,1-.327-.318.367.367,0,0,1,.261-.419l10.321-2.569,40.123-8.093a34.267,34.267,0,0,1,4.131-.266,20.476,20.476,0,0,1,13.478,4.534,52.972,52.972,0,0,1,5.223,5.15,44.586,44.586,0,0,0,6.2,5.9,14.8,14.8,0,0,0,7.958,3,2.412,2.412,0,0,1,2.277,2.159,2.214,2.214,0,0,1-1.653,2.443A13.045,13.045,0,0,1,569.686,487.031Zm7.978-25.108a1.566,1.566,0,0,1-.362-.043,32.577,32.577,0,0,1-9.057-3.831,98.379,98.379,0,0,1-8.117-5.6c-2.008-1.488-4.084-3.025-6.208-4.412-4.727-3.087-9.865-4.463-16.661-4.463-3.226,0-6.5.292-9.957.6l-.608.054c-9.927.884-19.455,2.089-28.318,3.58-3.057.514-6.167,1.142-9.175,1.748a154.015,154.015,0,0,1-17.381,2.82l0-.018a1.161,1.161,0,0,1-1.076-.922.962.962,0,0,1,.516-1.125c8.838-4.413,18.926-6.527,28.682-8.572l.642-.134,28.94-4.5,1.066-.106c3.351-.326,5.91-.471,8.3-.471a40.019,40.019,0,0,1,9.188.965,30.377,30.377,0,0,1,8.888,3.612l1.609.973c7.436,4.52,15.768,9.969,20.526,17.457a1.428,1.428,0,0,1,.047,1.491A1.725,1.725,0,0,1,577.664,461.923Zm239.654-40.985a65.133,65.133,0,0,1-17.553-2.084,33.259,33.259,0,0,1-7.854-3.282,22.91,22.91,0,0,1-6.281-5.377c-2.828-3.538-3.864-7.094-3.079-10.568a15.4,15.4,0,0,1,4.982-7.76,36.739,36.739,0,0,1,8.668-5.692,9.477,9.477,0,0,1-2.7-4.094,7.7,7.7,0,0,1,.106-4.979c1.385-3.933,5.05-6.327,8.593-8.642a34.512,34.512,0,0,0,5.456-4.078,27.159,27.159,0,0,0,6.139-9.013,19.012,19.012,0,0,0,1.177-10.7l-.08-.4a3.855,3.855,0,0,1,.7-3.288,3.813,3.813,0,0,1,2.943-1.37,4.023,4.023,0,0,1,3.271,1.745l.526.726c.573.786,1.164,1.579,1.789,2.419l.018.024a93.668,93.668,0,0,1,7.494,11.163c2.438,4.533,3.546,8.536,3.39,12.238a13.694,13.694,0,0,1,6.781,2.049,11.517,11.517,0,0,1,4.628,5.154,14.248,14.248,0,0,1,.947,6.7c4.405.342,9.074,3.283,11.548,5.87a12.786,12.786,0,0,1,3.572,7.824,14.2,14.2,0,0,1-2.006,8.4c-7.544,12.846-24.582,15.958-34.067,16.669l-.445.032C822.841,420.832,820.008,420.937,817.317,420.937ZM799.181,388.16c-2.5,2.551-4.93,5.2-7.281,7.755a7.912,7.912,0,0,0-2.442,6.3c.273,2.4,1.883,4.679,4.654,6.581a27.927,27.927,0,0,0,10.749,4.161,64.4,64.4,0,0,0,12.061.975h.005c2.491,0,4.914-.09,6.746-.168a59.493,59.493,0,0,0,14.191-2.186,34.174,34.174,0,0,0,12.646-6.588l.32-.279a18.186,18.186,0,0,0,3.486-4.11,7.562,7.562,0,0,0,1.275-4.631,5.622,5.622,0,0,0-3.233-4.262,14.09,14.09,0,0,0-4.775-1.405,22.143,22.143,0,0,1-2.488-.509c-2.344,4.594-5.917,7.57-9.8,8.164a3.767,3.767,0,0,1-.567.044,3.563,3.563,0,0,1-3.4-2.5,2.9,2.9,0,0,1,1.317-3.353l.7-.433A17.469,17.469,0,0,0,838.39,387a11.063,11.063,0,0,0,2.07-6.583,6.105,6.105,0,0,0-1.75-3.836,5.336,5.336,0,0,0-3.738-1.884,3.466,3.466,0,0,0-2.549,1.142l-.144.156A3,3,0,0,1,830,377.08a3.786,3.786,0,0,1-3.126-1.877,3.256,3.256,0,0,1-.134-3.265l.084-.149-4.841-18.134a30.032,30.032,0,0,1-3.6,8.8,34.517,34.517,0,0,1-6.187,7.523,38.165,38.165,0,0,1-6.062,4.55l-.261.151c-.283.159-.644.347-.993.53-2.228,1.163-5.595,2.921-5.284,4.987.234,1.551,3.179,3.4,4.435,4.121,2.273,1.308,4.681,2.257,5.726,2.258a.546.546,0,0,1,.505.453.432.432,0,0,1-.245.508,15.873,15.873,0,0,1-6.439,1.654A10.011,10.011,0,0,1,799.181,388.16ZM234.648,335.028a2.8,2.8,0,0,1-2.959-2.42c-1.807-11.632-3.6-23.443-5.344-34.864l0-.014c-2.056-13.5-4.182-27.469-6.331-41.194-1.529-9.765-3.279-19.664-4.971-29.237l0-.016c-.514-2.9-1.045-5.908-1.568-8.9l-5.608-36.706a.686.686,0,0,1,.2-.5.819.819,0,0,1,.573-.235.7.7,0,0,1,.627.359c5.465,9.615,8.547,20.985,11.528,31.979.339,1.249.688,2.538,1.035,3.8,3.034,11.044,5.778,22.984,8.635,37.574,2.513,12.827,4.444,25.728,5.74,38.345,1.316,12.816,2.029,25.84,2.119,38.713a3.033,3.033,0,0,1-.9,2.2A3.973,3.973,0,0,1,234.648,335.028Zm41.166-36.488a4.33,4.33,0,0,1-3.256-1.529,3.838,3.838,0,0,1-.8-3.276L268.37,200.4a1.046,1.046,0,0,1,.126-.971,1.181,1.181,0,0,1,.956-.445,1.237,1.237,0,0,1,1.179.794,174.407,174.407,0,0,1,7.617,23.235,165.435,165.435,0,0,1,4.208,24.142,143.625,143.625,0,0,1-3.28,48.618A3.363,3.363,0,0,1,275.814,298.539ZM463.071,212.8a1.865,1.865,0,0,1-1.521-.714,21.12,21.12,0,0,1-1.331-2,10.7,10.7,0,0,0-2.832-3.447c-1.907-1.349-4.291-1.829-6.6-2.292-1.022-.205-2.078-.418-3.06-.7a23.651,23.651,0,0,1-10.669-6.356l-10.473-23.635a.906.906,0,0,1,.23-.693,1.02,1.02,0,0,1,.744-.295,1.154,1.154,0,0,1,.947.466A71.471,71.471,0,0,1,433.129,181a60.012,60.012,0,0,0,5.479,9.01,20.435,20.435,0,0,0,8.323,6.508,35.075,35.075,0,0,0,6.037,1.7c3.2.7,6.509,1.416,9.281,3.615a11.2,11.2,0,0,1,3.5,4.424,5.675,5.675,0,0,1-.446,5.346A2.742,2.742,0,0,1,463.071,212.8Zm17.652-17.993a2.669,2.669,0,0,1-1.919-.776c-2.738-2.9-3.324-7.221-1.74-12.853a56.685,56.685,0,0,1,5.831-12.694c4.422-7.514,10.461-12.724,16.854-18.241,1.211-1.045,2.463-2.125,3.712-3.23,8.426-7.453,13.826-17.657,18.591-26.66,1.4-2.637,2.794-5.347,4.146-7.968l.028-.054.014-.027c1.656-3.21,3.369-6.53,5.1-9.768-2.82-2.492-4.022-7.144-4.989-10.881-.171-.664-.333-1.29-.5-1.89l-.1-.362A144.849,144.849,0,0,1,521.5,69.639a108.352,108.352,0,0,1-1.031-19.164l.068-1.641,3.151-11.768a1.25,1.25,0,0,1,.568-.145,1.237,1.237,0,0,1,.989.553,1.278,1.278,0,0,1-.19,1.962,47.341,47.341,0,0,1,2.1,7.078c.586,2.587,1.222,5.23,1.944,8.077.683,2.694,1.335,5.444,1.966,8.1l.008.034.005.023c.633,2.67,1.287,5.43,1.974,8.135,1.383,5.446,3.108,11.175,5.128,17.028.115.335.248.7.406,1.109l.22.567.054-.086a.584.584,0,0,1,.495-.3.626.626,0,0,1,.464.222.673.673,0,0,1,.155.547c-.055.363-.122.731-.187,1.087l0,.011,0,.025c-.04.219-.081.446-.119.669l.2.535c1.27,3.418,2.126,6.993-.19,9.99a4.718,4.718,0,0,1-3.013,1.986,172.527,172.527,0,0,1-6.865,18.391l-.751,1.731c-3.616,8.3-7.659,17.024-13.794,24.551a90.386,90.386,0,0,1-9.379,9.44c-4.252,3.876-8.649,7.885-11.9,12.9a53.917,53.917,0,0,0-6,13.035l-.564,1.757c-1.078,3.315-2.3,6.45-5.364,8.366A2.482,2.482,0,0,1,480.723,194.807Zm51.81-8.935a5.583,5.583,0,0,1-3.581-1.231l-6.865-5.7c-1.154-.959-2.306-1.923-3.424-2.863-1.043-.878-1.992-1.69-2.9-2.485l-1.432-1.264c-.164-.147-.466-.457-.847-.85-1.115-1.147-2.8-2.881-3.408-2.978a1.164,1.164,0,0,0-.18-.014c-1.826,0-5.482,3.812-7.446,5.86l-.006.006c-.263.274-.49.51-.676.7l-.205.2a83.877,83.877,0,0,0-8.334,9.577.651.651,0,0,1-.522.279.612.612,0,0,1-.513-.279.623.623,0,0,1-.017-.615,85.559,85.559,0,0,1,8.113-13.982l.639-.874c.357-.48.734-1.023,1.133-1.6l.017-.025c1.967-2.833,4.414-6.358,7.488-7.051a6.082,6.082,0,0,1,1.336-.147c3.372,0,6.714,2.716,9.4,4.9.57.464,1.109.9,1.622,1.294l.209.158c1.709,1.283,3.392,2.588,4.667,3.581a60.763,60.763,0,0,1,.95-12.723,35.852,35.852,0,0,1,4.383-11.837,52.506,52.506,0,0,1,7.955-9.5c1.27-1.294,2.583-2.631,3.813-4.007a53.585,53.585,0,0,0,6.077-8.956,65.757,65.757,0,0,1,4.708-7.308A3.042,3.042,0,0,1,556.688,115c.12-3.241.522-6.54.911-9.73l.006-.047c.109-.89.221-1.811.324-2.711l.138-1.232c.069-.645.15-1.294.235-1.982.5-4.013,1.062-8.561-.815-12.151-1.653-3.162-5.076-5.624-8.1-7.8l0,0c-.786-.566-1.529-1.1-2.235-1.639l-2.871-2.228-8.292-7.923a1.047,1.047,0,0,1-.1-1.138,1.571,1.571,0,0,1,1.334-.815,1.22,1.22,0,0,1,.249.025c5.2,1.075,10.225,3.874,15.084,6.582.762.424,1.625.906,2.45,1.355l.584.317c4.159,2.242,8.725,5.161,11.059,9.819,2.431,4.848,2.31,10.387,1.949,16.11l-.032.506c-.089,1.386-.164,2.811-.236,4.188v.029a97.688,97.688,0,0,1-1.619,15.368,4.532,4.532,0,0,1-1.692,2.785,4.622,4.622,0,0,1-2.793.877,5.782,5.782,0,0,1-1.69-.256c-2.219,7-7.416,12.662-12.443,18.133-1.742,1.9-3.544,3.858-5.152,5.811-3.309,4.018-5.25,8.994-5.932,15.214-.6,5.482-.178,11.18.231,16.69q.075,1,.146,1.992a4.148,4.148,0,0,1-1.054,3.213A5.158,5.158,0,0,1,532.533,185.872Z" transform="translate(19 -5.001)"/>
      </g>
    </g>
    <g id="head_Long" data-name="head/Long" transform="translate(-8683 3850)">
      <path id="_Background-2" data-name="ðŸŽ¨ Background" d="M395.9,175.053c-3.79-62.2-23.974-132.723-83.378-163.263C181.564-40.768,9.38,91.588.264,226.8c-3.178,46.284,22.52,96.859,69.481,109.727,10.441,13.833,26.231,22.281,41.816,29.613,185.627,96.307,305.534,18.02,284.34-191.087Z" transform="translate(36 95)" fill="#fff"/>
      <path id="_Ink-2" data-name="ðŸ– Ink" d="M559.189,199.517q-9.84-27.33-20.78-54.24c-7.1-17.46-13.513-35.3-22.33-51.93-52.66-99.34-148.42-99.34-197.92-86.36-25.67-11.06-73.751-7.94-100.48,2.04C174.407,25.184,121.658,88.742,103.623,117.3,63.8,180.347,38.954,264.264,65.4,337.12a164.141,164.141,0,0,0,12.83,26.84,104.679,104.679,0,0,1-10.713,12.2c-11.848,11.722-23.7,23.058-33.931,36.279A180.383,180.383,0,0,0,8.71,454.951C-3.126,484-3.7,516.9,11.952,544.62c13.614,24.12,37.731,42.081,64.9,43.794,1.395.194,2.792.372,4.195.513a78.548,78.548,0,0,0,13,16.15c15.35,14.6,51.94,22.09,72.81,22.57,1.07.86,2.15,1.72,3.23,2.57,12.77,10.05,26.17,20.19,40.83,27.34,9.93,4.85,22.95,8.9,33.31,5.4,4.7,3.14,12.41,2.48,17.07-.09,7.66-4.22,13.89-11.82,17.68-19.6,9.19-18.89,6.98-39.56,4.62-59.74-2.6-22.29-5.1-44.59-7.64-66.88-1.99-17.43-4.07-35.15-9.37-51.94a119.344,119.344,0,0,0-10.97-24.92,4.094,4.094,0,0,0-.09-1.94c-1.52-4.94-4.66-7.53-8.38-10.89-.48-.43-.96-.87-1.43-1.32a45.024,45.024,0,0,0-5.98-5.76c-.82-.83-1.63-1.67-2.44-2.51a203.43,203.43,0,0,1-18.74-22.4c-5.48-7.7-10.43-15.74-15.14-23.93-4.79-8.33-7.96-17.52-12.74-25.79a1.311,1.311,0,0,0-2.03-.26c-1.48,1.53-2.43,3.23-2.25,5.02l-.74.11a5.029,5.029,0,0,0-6.15-4.31c-5.06.88-9.22,1.21-13.6-.47.77-5.11,1.48-10.23,2.18-15.36,1.28-9.44,2.47-18.91,3.49-28.38a41.184,41.184,0,0,1,7.32,2.52,35.28,35.28,0,0,1,9.41,6.12c2.72,2.5,4.6,5.87,7.92,7.61a5.039,5.039,0,0,0,7.31-5.62c-2.27-8.73-15.12-13.73-23.07-15.38a36.79,36.79,0,0,0-8.31-.75q.945-9.12,1.65-18.25.33-4.32.61-8.65a45.449,45.449,0,0,1,19.23-1.55c2.12,1.69,4.24,3.36,6.29,5.05,6.51,5.38,12.99,10.79,19.39,16.3.58.49,1.15.98,1.73,1.48,3.8,3.27,8.54.03,7.9-4.6-5.22-37.94,18.02-68.12,45.23-91.5,30.12-25.89,84.88-28.9,120.7-73.75,16.5,3.358,53.33,13.33,68.53,37.55,21.28,33.94,18.5,64.35,20.12,102.85,1.62,38.53,5.74,78.72-3.01,116.71-8.07,35.03-29.92,64.96-63.82,78.72-.84.34-1.69.67-2.54.99a102.614,102.614,0,0,1-55.1,5c-20.41-3.86-37.45-13.2-54.43-24.69-.98-.65-2.41.69-1.67,1.67,22.38,29.66,66.34,39.57,101.21,31.74q2.445-.555,4.86-1.21a91.713,91.713,0,0,0,3.93,68.89,92.747,92.747,0,0,0,26.78,33.48c12.51,9.88,28.03,17.86,36.71,31.73,7.95,12.71,5.59,26.99-8.02,34.33-3.43,1.86-4.75,7.87-1.35,10.51,1.3,1,2.6,2.02,3.93,3.02,7.62,5.75,28.55,16.55,31.94,16.95,30.1,3.57,50.34-18.53,63.31-44.6,15.23-30.6,11.27-67.89-5.51-97.03-13.46-23.38-39.97-46.42-29.43-76.01,3.76-10.57,11.45-19.58,18.92-27.72,8.52-9.27,17.68-17.95,25.85-27.55,8.12-9.53,15.32-19.9,19.34-31.86,5.87-17.48,2.95-36.38-1.46-53.83C584.529,272.807,572.259,235.847,559.189,199.517Z" transform="translate(-85 31.843)"/>
    </g>
    <g id="Group_4" data-name="Group 4" transform="translate(411.786 947)">
      <g id="accessories_Glasses_2" data-name="accessories/Glasses 2" transform="translate(-9033.002 3180.059)">
        <path id="_Ink-3" data-name="ðŸ– Ink" d="M185.291,117.737h0a62.787,62.787,0,0,1-33.432-9.854,44.262,44.262,0,0,1-13.846-14.2A40.885,40.885,0,0,1,132.5,77.148a53.863,53.863,0,0,1,1.812-20.121,18.238,18.238,0,0,1-5.325.7,25.994,25.994,0,0,1-7.763-1.173,11.129,11.129,0,0,1-5.6-3.464c-10.845-.926-21.8-2.27-32.4-3.568-19.251-2.36-39.155-4.8-58.967-4.8-4.718,0-9.357.139-13.791.414a3.1,3.1,0,0,0-2.805,1.875A8.129,8.129,0,0,0,7.5,50.3a8.16,8.16,0,0,1-.157,3.279,3.071,3.071,0,0,1-2.772,1.874C2.052,55.227.458,53.608.083,50.9a12.156,12.156,0,0,1,1.156-6.574,8.436,8.436,0,0,1,4.16-4.47c1.984-1.422,8.024-2.173,17.467-2.173a396.217,396.217,0,0,1,45.355,3.3c18.164,2.253,35.17,5.33,47.886,8.665,2.324-1.524,5.414-2.266,9.446-2.266a68.729,68.729,0,0,1,8.943.784c.96.128,1.863.248,2.713.345a59.976,59.976,0,0,1,7.533-13.175,73.942,73.942,0,0,1,11.553-12.3,59.259,59.259,0,0,1,14.373-9.094,39.974,39.974,0,0,1,15.991-3.55,33.338,33.338,0,0,1,5.371.434,74.051,74.051,0,0,1,15.556,2.461,48.644,48.644,0,0,1,13.56,6.017,41.307,41.307,0,0,1,10.872,10.383A52.156,52.156,0,0,1,239.51,45.24,38.416,38.416,0,0,1,252.3,37.775a45.344,45.344,0,0,1,15.127-2.655,33.415,33.415,0,0,1,17.087,4.288,64,64,0,0,1,14.883-21.1A59.234,59.234,0,0,1,321.737,5.29,27.057,27.057,0,0,1,337.589,0a29.338,29.338,0,0,1,12.33,2.852,41.819,41.819,0,0,1,11.028,7.586,53.455,53.455,0,0,1,8.83,10.866A52.657,52.657,0,0,1,375.513,34a12.105,12.105,0,0,1,5.24-2.3,27.774,27.774,0,0,1,5.67-.569,5.317,5.317,0,0,1,3.122,1.676,3.575,3.575,0,0,1,.87,2.662c-.181,1.911-2.018,3.84-5.715,3.841a19.237,19.237,0,0,1-8.314-2.344c2.552,10.673,3,20.639,1.326,29.622a49.08,49.08,0,0,1-9.673,21.686,48.512,48.512,0,0,1-8.741,8.562,52.452,52.452,0,0,1-10.386,6.124,57.644,57.644,0,0,1-23.276,4.908h-.008a55.573,55.573,0,0,1-10.85-1.058,50.16,50.16,0,0,1-10.216-3.181,44.011,44.011,0,0,1-9.089-5.308A39.663,39.663,0,0,1,288,90.877,41.028,41.028,0,0,1,280.1,71.709c-1.179-7.943-.461-16.813,2.134-26.363a79.971,79.971,0,0,0-18.6-2.358,51.779,51.779,0,0,0-23.275,5.125,53.435,53.435,0,0,1,1.979,12.73,52.12,52.12,0,0,1-1.067,12.274,53.48,53.48,0,0,1-3.792,11.469,55.781,55.781,0,0,1-6.2,10.314,57.674,57.674,0,0,1-46,22.837Zm6.416-99.672h0a72.155,72.155,0,0,0-25.2,5.03,63.824,63.824,0,0,0-20.449,23.236,59.01,59.01,0,0,0-5.333,14.441,45.171,45.171,0,0,0-.928,14.659,34.16,34.16,0,0,0,6.982,17.576c4.285,5.506,10.388,9.846,18.14,12.9a51.986,51.986,0,0,0,9.744,2.875,53.476,53.476,0,0,0,10.044.951,52.66,52.66,0,0,0,22.1-4.828,48.236,48.236,0,0,0,9.669-5.965,45.9,45.9,0,0,0,8.065-8.271,48.715,48.715,0,0,0,9.777-24.97,48.015,48.015,0,0,0-.514-12.942,44.916,44.916,0,0,0-3.94-12.069,41.154,41.154,0,0,0-6.061-9.043,39.026,39.026,0,0,0-8.435-7.164,40.585,40.585,0,0,0-10.724-4.716,48.157,48.157,0,0,0-12.929-1.7ZM335.01,7.038a.557.557,0,0,0-.248.047,48.768,48.768,0,0,0-9.509,2.457c-1.683.558-3.27,1.084-4.691,1.438-9.376,4.255-18.058,12.044-24.445,21.933-6.4,9.9-9.838,20.906-9.686,30.978a38.071,38.071,0,0,0,1.429,9.925,33.02,33.02,0,0,0,4.17,9.1c3.966,6.008,9.928,10.7,17.72,13.96a43.05,43.05,0,0,0,8.358,2.508,45.915,45.915,0,0,0,8.7.828,46.813,46.813,0,0,0,17.1-3.24,42.889,42.889,0,0,0,7.708-3.992,39.42,39.42,0,0,0,6.693-5.522,37.613,37.613,0,0,0,7.671-11.048,50.947,50.947,0,0,0,4.062-13.584,61.285,61.285,0,0,0-2.49-29.047,49.9,49.9,0,0,0-4.607-9.845,39.987,39.987,0,0,0-6.591-8.184,33.355,33.355,0,0,0-8.55-5.888A32.835,32.835,0,0,0,337.32,6.9a2.386,2.386,0,0,1-1.107.262,4.267,4.267,0,0,1-.674-.064l-.074-.012A3.058,3.058,0,0,0,335.01,7.038ZM136.485,50.319h0c-.166.075-.333.149-.5.222l-.014.006-.133.059c.019.009.038.016.056.022a.6.6,0,0,1,.058.023,1.278,1.278,0,0,1,.22.143c.032.024.064.049.1.072.038-.1.079-.206.119-.307l.007-.017c.03-.074.059-.149.088-.224Z" transform="translate(0.001 0)"/>
      </g>
      <g id="face_Calm" data-name="face/Calm" transform="translate(-8878 3165.059)">
        <path id="_Ink-4" data-name="ðŸ– Ink" d="M105.29,186.789a38.105,38.105,0,0,1-21.113-6.244A40.23,40.23,0,0,1,75.443,173a31.6,31.6,0,0,1-5.324-8.5,24.113,24.113,0,0,1-1.9-9.657,2.981,2.981,0,0,1,.707-1.9,3.319,3.319,0,0,1,1.766-1.06,3.41,3.41,0,0,1,.778-.09,3.133,3.133,0,0,1,1.287.27,2.747,2.747,0,0,1,1.361,1.338c.634.832,1.469,1.923,2.308,2.978a58.045,58.045,0,0,0,9.583,9.806,29.673,29.673,0,0,0,11.923,5.608,25.533,25.533,0,0,0,5.479.6,26.822,26.822,0,0,0,9.252-1.674,31.47,31.47,0,0,0,12.95-9.1A6.953,6.953,0,0,1,130.906,159h.046a8.137,8.137,0,0,1,5.628,2.492,8.779,8.779,0,0,1,2.629,5.729,7.665,7.665,0,0,1-2.177,5.629,43.621,43.621,0,0,1-9.179,7.479,44.426,44.426,0,0,1-10.811,4.772A42.24,42.24,0,0,1,105.29,186.789Zm11.91-55.62h0a34.914,34.914,0,0,1-12.449-2.509,62.872,62.872,0,0,1-14.639-8.307,5.624,5.624,0,0,1-2.043-3.249,6.731,6.731,0,0,1,.29-3.648,8.3,8.3,0,0,1,2.464-3.563,6,6,0,0,1,3.841-1.5,5.449,5.449,0,0,1,2.971.912q.464.355.969.747l.033.026a79.25,79.25,0,0,0,9.165,6.372c4.14,2.357,7.733,3.5,10.983,3.5a11.861,11.861,0,0,0,4.641-.912,12.97,12.97,0,0,0,4.322-3.062,13.255,13.255,0,0,0,2.515-10.671,20.157,20.157,0,0,0-5.35-9.465,39,39,0,0,0-8.1-6.536,2.511,2.511,0,0,1-.68-2.887,3.767,3.767,0,0,1,1.248-1.8,3.829,3.829,0,0,1,2.39-.79,5.091,5.091,0,0,1,.86.076,27.158,27.158,0,0,1,9.55,3.45,21.664,21.664,0,0,1,6.423,5.922,23.526,23.526,0,0,1,4.1,15.718,25.9,25.9,0,0,1-2.1,8.25,24.07,24.07,0,0,1-4.734,7.089A22.626,22.626,0,0,1,117.2,131.169ZM21.478,92.737a4.785,4.785,0,0,1-1.387-.2,2.817,2.817,0,0,1-1.9-1.637c-1.334-3.543-2.215-9.459,1.166-17.525a41.049,41.049,0,0,1,6.175-10.123,25.35,25.35,0,0,1,6.63-5.949A22.223,22.223,0,0,1,42.7,54.582,21.115,21.115,0,0,1,52.864,57.2a26.437,26.437,0,0,1,7.02,5.77,72.756,72.756,0,0,1,5.446,7.251c.717,1.045,1.458,2.125,2.213,3.173a6.387,6.387,0,0,1,1.075,5.938,7.679,7.679,0,0,1-4.359,4.5,8.345,8.345,0,0,1-3.212.659,7.33,7.33,0,0,1-2.864-.568,7.7,7.7,0,0,1-4.132-4.364,29.773,29.773,0,0,0-3.208-5.828,17.509,17.509,0,0,0-4.669-4.624,8.413,8.413,0,0,0-8.446-.645c-2.569,1.168-6.887,5-9.828,9.8a19.21,19.21,0,0,0-3.224,11.446,2.6,2.6,0,0,1-.841,2.183,3.271,3.271,0,0,1-1.823.809A4.291,4.291,0,0,1,21.478,92.737ZM166.437,78.62a6.247,6.247,0,0,1-1.8-.29,6.818,6.818,0,0,1-2.816-1.682,5.607,5.607,0,0,1-1.566-2.833,11.6,11.6,0,0,0-4.072-6.779,8.128,8.128,0,0,0-6.5-1.709,12.481,12.481,0,0,0-6.993,4.193,15.356,15.356,0,0,0-1.468,2.141l-.044.072a15.623,15.623,0,0,1-2.9,3.811,2.832,2.832,0,0,1-1.8.677,2.685,2.685,0,0,1-.8-.125,11.4,11.4,0,0,1-2.581-3.61,7.1,7.1,0,0,1-.514-3.114,12.334,12.334,0,0,1,2.269-6.248A24.287,24.287,0,0,1,141.116,57a20.88,20.88,0,0,1,6.932-3.265,18.726,18.726,0,0,1,3.927-.418A20.045,20.045,0,0,1,163.5,57.067a21.889,21.889,0,0,1,8.951,13.7,7.287,7.287,0,0,1-.366,4.046,5.675,5.675,0,0,1-2.648,2.944A6.293,6.293,0,0,1,166.437,78.62Zm-163-26.68a1.667,1.667,0,0,1-.216-.014,2.03,2.03,0,0,1-1.056-.513C.67,50.153-.056,48.026,0,45.092A27.357,27.357,0,0,1,2.785,34.463,67.929,67.929,0,0,1,8.141,25.49a47.211,47.211,0,0,1,6.866-7.826A59.424,59.424,0,0,1,34.225,5.959c3.484-1.3,8.7-3.018,13.7-3.018.284,0,.569.006.847.017a16.46,16.46,0,0,1,5.1.969,13.408,13.408,0,0,1,4.539,2.821A8.423,8.423,0,0,1,60.924,12.9a8.782,8.782,0,0,1-2.53,6.293,13,13,0,0,1-5.374,3.141,31.25,31.25,0,0,1-5.867,1.047,53.348,53.348,0,0,0-5.716.844,53.711,53.711,0,0,0-13.805,5.041c-4.386,2.381-9.353,5.332-12.939,9.17-.845.9-1.647,1.861-2.424,2.787l-.021.025c-.722.861-1.4,1.674-2.131,2.466-.809.883-1.552,1.772-2.438,2.843a12.09,12.09,0,0,0-.688,1.217c-.176.368-.346.707-.52,1.036-.322.607-.633,1.14-.923,1.582-.575.966-.872,1.2-1.107,1.3A2.481,2.481,0,0,1,3.434,51.94Zm171.174-2.194a1.958,1.958,0,0,1-.323-.027,1.93,1.93,0,0,1-.985-.479,1.852,1.852,0,0,1-.553-.956,35.885,35.885,0,0,0-5.218-12.672A27.352,27.352,0,0,0,157.1,26.725a66.921,66.921,0,0,0-14.575-4.9c-1.4-.332-2.913-.553-4.374-.767l-.069-.01a36.939,36.939,0,0,1-6.933-1.483,12.262,12.262,0,0,1-5.693-3.842,10.628,10.628,0,0,1-1.968-3.839,9.791,9.791,0,0,1-.237-4.133,8.486,8.486,0,0,1,4.608-6.279A13.869,13.869,0,0,1,134.3,0c5.379,0,11.207,2.494,15.462,4.316l.34.145.015.007q.573.245,1.129.48a50.754,50.754,0,0,1,17.7,11.809,38.243,38.243,0,0,1,9.1,16.807c1.346,5.83.711,11.119-1.836,15.295a1.816,1.816,0,0,1-.83.729A1.912,1.912,0,0,1,174.608,49.746Z" transform="translate(0 0)"/>
      </g>
    </g>
  </g>
</svg>
